<?xml version="1.0" encoding="UTF-8" standalone="no"?>
<svg
        xmlns:dc="http://purl.org/dc/elements/1.1/"
        xmlns:cc="http://creativecommons.org/ns#"
        xmlns:rdf="http://www.w3.org/1999/02/22-rdf-syntax-ns#"
        xmlns="http://www.w3.org/2000/svg"
        xmlns:xlink="http://www.w3.org/1999/xlink"
        xmlns:sodipodi="http://sodipodi.sourceforge.net/DTD/sodipodi-0.dtd"
        xmlns:inkscape="http://www.inkscape.org/namespaces/inkscape"
        width="16"
        height="16"
        viewBox="0 0 16 16"
        version="1.1"
        id="svg8"
        sodipodi:docname="debug16.svg"
        inkscape:version="0.92.3 (2405546, 2018-03-11)">
  <metadata
     id="metadata14">
    <rdf:RDF>
      <cc:Work
         rdf:about="">
        <dc:format>image/svg+xml</dc:format>
        <dc:type
           rdf:resource="http://purl.org/dc/dcmitype/StillImage" />
        <dc:title />
      </cc:Work>
    </rdf:RDF>
  </metadata>
  <defs
     id="defs12">
    <clipPath
       id="1">
      <path
         style="fill:#1890d0"
         inkscape:connector-curvature="0"
         transform="matrix(15.33333,0,0,11.5,415,-125.5)"
         d="m -24,13 c 0,1.105 -0.672,2 -1.5,2 -0.828,0 -1.5,-0.895 -1.5,-2 0,-1.105 0.672,-2 1.5,-2 0.828,0 1.5,0.895 1.5,2"
         id="path6" />
    </clipPath>
    <linearGradient
       id="2"
       x1="23.261999"
       y1="46"
       x2="22.868999"
       y2="0.55800003"
       gradientUnits="userSpaceOnUse"
       gradientTransform="matrix(0.98013544,0,0,0.98013544,3.4229515,0.13742516)">
      <stop
         stop-color="#ff433a"
         id="stop26" />
      <stop
         stop-color="#ff9436"
         offset="1"
         id="stop28" />
    </linearGradient>
    <clipPath
       id="1-6">
      <path
         style="fill:#1890d0"
         inkscape:connector-curvature="0"
         transform="matrix(15.33333,0,0,11.5,415,-125.5)"
         d="m -24,13 c 0,1.105 -0.672,2 -1.5,2 -0.828,0 -1.5,-0.895 -1.5,-2 0,-1.105 0.672,-2 1.5,-2 0.828,0 1.5,0.895 1.5,2"
         id="path6-7" />
    </clipPath>
    <linearGradient
       id="2-5"
       x1="23.261999"
       y1="46"
       x2="22.868999"
       y2="0.55800003"
       gradientUnits="userSpaceOnUse"
       xlink:href="#2">
      <stop
         stop-color="#ff433a"
         id="stop26-3" />
      <stop
         stop-color="#ff9436"
         offset="1"
         id="stop28-5" />
    </linearGradient>
    <mask
       maskUnits="userSpaceOnUse"
       id="mask885">
      <path
         style="fill:#ffffff;fill-opacity:1;stroke:none;stroke-width:1;stroke-miterlimit:4;stroke-dasharray:none;stroke-opacity:1"
         d="M -0.04882812,-0.08398437 V 15.832031 H 10.591797 c -0.127732,-0.09941 -0.254003,-0.201479 -0.367188,-0.316406 H 8.2460938 V 13.546875 13.53125 11.578125 11.5625 9.59375 H 9.9824219 C 10.132119,9.397393 10.32445,9.2478847 10.515625,9.0917969 l -0.9375,-0.9257813 1.416016,-1.3984375 1.410156,1.390625 1.402344,-1.3925781 1.417968,1.4003906 -0.908203,0.8984375 c 0.206655,0.163514 0.414557,0.3198725 0.574219,0.5292969 h 1.097656 V -0.08398437 Z M 15.988281,9.59375 v 5.921875 h 0.570313 V 13.546875 13.53125 11.578125 11.5625 9.59375 Z m 0,5.921875 h -1.335937 c -0.113185,0.114929 -0.239579,0.216992 -0.367188,0.316406 h 1.703125 z m -1.703125,0.316406 H 10.591797 C 11.107862,16.23368 11.732509,16.5 12.439453,16.5 c 0.706945,0 1.330137,-0.266315 1.845703,-0.667969 z m -1.519531,-6.6249998 -0.0957,0.095703 -0.220703,-0.011719 c -0.04,-0.00206 -0.04169,-0.00276 -0.05274,-0.00391 0.0057,6.37e-5 -0.009,-4.735e-4 -0.0039,0 -0.01706,0.00198 -0.02339,0.00333 -0.03906,0.00391 l -0.214844,0.00977 -0.08203,-0.080078 -0.603516,0.3105469 c -0.364921,0.187883 -0.665413,0.4712849 -0.871094,0.8183589 l -0.146484,0.244141 h -0.05469 l -0.07031,0.548828 c -0.01634,0.127555 -0.03125,0.210692 -0.03125,0.263672 v 1.140625 0.01563 0.8125 c 0,0.170298 0.02914,0.343897 0.07813,0.529297 l 0.162109,0.611328 h 0.09961 l 0.15039,0.183594 C 11.168912,15.185869 11.764085,15.5 12.439453,15.5 c 0.67537,0 1.270544,-0.314136 1.669922,-0.800781 l 0.148437,-0.183594 h 0.09961 l 0.162109,-0.611328 c 0.049,-0.185364 0.07813,-0.358981 0.07813,-0.529297 V 13.046875 12.5625 12.546875 11.40625 c 0,-0.05296 -0.01295,-0.136097 -0.0293,-0.263672 l -0.07031,-0.548828 h -0.05664 L 14.296875,10.349609 C 14.083207,9.9890085 13.767732,9.6959625 13.386719,9.5097656 Z M 10.804688,10.625 h 3.193359 v 1.828125 0.08594 1.828126 H 10.804688 V 12.953125 12.539062 12.453125 11.125 Z"
         id="path887"
         inkscape:connector-curvature="0" />
    </mask>
  </defs>
  <sodipodi:namedview
     pagecolor="#ffffff"
     bordercolor="#666666"
     borderopacity="1"
     objecttolerance="10"
     gridtolerance="10"
     guidetolerance="10"
     inkscape:pageopacity="0"
     inkscape:pageshadow="2"
     inkscape:window-width="1788"
     inkscape:window-height="1258"
     id="namedview10"
     showgrid="false"
     inkscape:zoom="41.7193"
     inkscape:cx="7.7629376"
     inkscape:cy="9.3301915"
     inkscape:window-x="2030"
     inkscape:window-y="68"
     inkscape:window-maximized="0"
     inkscape:current-layer="svg8" />
  <path
     d="m 5.6132201,0.4441522 c -0.6994379,0 -1.2632424,0.5700106 -1.2632424,1.2743237 0,0.4915558 0.2783565,0.9126373 0.6821502,1.1253944 L 4.6252316,5.749328 c -0.063829,-0.00316 -0.1267673,-0.00927 -0.1914815,-0.00927 -2.0987554,0 -3.79549011,1.7118048 -3.79549011,3.8247432 0,2.1129408 1.70116731,3.8265178 3.79549011,3.8265178 0.9613941,0 1.8354694,-0.362572 2.5034366,-0.955632 l 0.3860645,1.533178 c -0.2167449,0.153806 -0.3585826,0.407784 -0.3585826,0.696778 0,0.468951 0.374983,0.849254 0.8412757,0.849254 0.4667342,0 0.8421609,-0.380303 0.8421609,-0.849254 0,-0.471168 -0.3758704,-0.851027 -0.8421609,-0.851027 -0.041219,0 -0.080672,0.0062 -0.1201195,0.01197 L 7.2545492,12.117888 c 0.6032541,-0.677719 0.9729181,-1.570411 0.9729181,-2.553081 0,-0.022163 -0.00316,-0.043879 -0.00349,-0.065595 L 10.7416,7.4110932 c 0.38296,0.5310058 1.000398,0.878508 1.702051,0.878508 1.166173,0 2.108065,-0.9512 2.108065,-2.1262363 0,-1.1723785 -0.942779,-2.1235784 -2.108065,-2.1235784 -1.166172,0 -2.108062,0.9511999 -2.108062,2.1235784 0,0.3093825 0.0687,0.6014804 0.186162,0.8665402 l -2.343426,1.94362 C 8.0599215,8.2044519 7.7155219,7.5129928 7.2137706,6.9678029 L 7.4863655,6.2267011 c 0.1320862,0.060286 0.2774702,0.096185 0.4312746,0.096185 0.5815359,0 1.0527027,-0.4755994 1.0527027,-1.0620105 0,-0.5864111 -0.4729405,-1.0615669 -1.0527027,-1.0615669 -0.5837511,0 -1.0553606,0.4747132 -1.0553606,1.0615669 0,0.2623997 0.098845,0.5004213 0.2561935,0.6856976 L 6.866711,6.6313834 C 6.3569819,6.2014377 5.7328959,5.9080109 5.047642,5.794984 L 5.4416843,2.9772875 c 0.056296,0.00752 0.1121416,0.017279 0.1706495,0.017279 0.6994369,0 1.2654587,-0.5708959 1.2654587,-1.2752095 0,-0.7043137 -0.5660218,-1.27432427 -1.2654587,-1.27432427"
     id="path37-9"
     inkscape:connector-curvature="0"
     style="display:inline;fill:#eda200;fill-opacity:1;stroke-width:0.44324309"
     inkscape:label="visualvm"
     mask="url(#mask885)" />
  <path
     inkscape:label="debug"
     id="path854"
     d="m 15.097935,13.047292 v 0.328119 c 0,0.227713 -0.03921,0.444927 -0.09506,0.656236 h 1.054972 v 0.984354 h -1.562848 c -0.487933,0.59455 -1.224486,0.984355 -2.0561,0.984355 -0.831613,0 -1.568167,-0.389805 -2.056099,-0.984355 H 8.7454984 V 14.031647 H 9.8749236 C 9.8190868,13.820338 9.7798642,13.603124 9.7798642,13.375411 V 13.047292 H 8.7454986 v -0.984355 h 1.0343645 v -0.656235 c 0,-0.112217 0.019943,-0.219185 0.033902,-0.328119 H 8.745499 V 10.09423 h 1.405965 c 0.253938,-0.428523 0.624874,-0.7769841 1.072257,-1.0073232 l -0.933987,-0.9213557 0.70531,-0.6962669 1.340154,1.3229729 c 0.03523,-0.0013 0.03125,-0.00656 0.06648,-0.00656 0.01263,0 0.06049,0.00525 0.07313,0.0059 l 1.333505,-1.3223166 0.705309,0.6962668 -0.907394,0.8957632 c 0.468654,0.229026 0.856873,0.5886435 1.120118,1.0329155 h 1.331512 v 0.984353 h -0.993815 c 0.01396,0.108935 0.03391,0.215902 0.03391,0.32812 v 0.656234 h 0.95991 v 0.984356 z M 11.30482,11.125457 v 0.914044 h 2.193705 v -0.914044 z m 0,1.828087 v 0.914044 h 2.193705 v -0.914044 z"
     style="display:inline;fill:#59a869;fill-rule:evenodd;stroke-width:0.60936242;fill-opacity:1"
     inkscape:connector-curvature="0" />
</svg>
